<svg xmlns="http://www.w3.org/2000/svg" version="1.1" xmlns:xlink="http://www.w3.org/1999/xlink" xmlns:svgjs="http://svgjs.com/svgjs" width="1000" height="1000"><rect width="1000" height="1000" rx="200" ry="200" fill="#ffffff"/><g transform="matrix(13.513513513513512,0,0,13.513513513513512,100.06255229228253,175.67567567567573)"><svg xmlns="http://www.w3.org/2000/svg" version="1.1" xmlns:xlink="http://www.w3.org/1999/xlink" xmlns:svgjs="http://svgjs.com/svgjs" width="59.2" height="48"><svg xmlns="http://www.w3.org/2000/svg" viewBox="0 0 59.2 48"><defs><style>.cls-1{fill:#1b6ab3;}.cls-2{fill:#1b6ab3;}</style></defs><g id="Layer_2" data-name="Layer 2"><g id="Layer_1-2" data-name="Layer 1"><rect class="cls-1" width="34.97" height="3.85"/><rect class="cls-2" x="0.08" y="0.08" width="34.81" height="3.69"/><rect class="cls-1" x="18.45" y="11.54" width="3.85" height="36.46"/><rect class="cls-2" x="18.53" y="11.62" width="3.69" height="36.3"/><rect class="cls-1" y="5.77" width="34.97" height="3.85"/><rect class="cls-2" x="0.08" y="5.85" width="34.81" height="3.69"/><rect class="cls-1" x="12.68" y="11.54" width="3.85" height="36.46"/><rect class="cls-2" x="12.76" y="11.62" width="3.69" height="36.3"/><rect class="cls-1" x="24.22" y="44.15" width="34.97" height="3.85"/><rect class="cls-1" x="24.3" y="44.23" width="34.81" height="3.69"/><rect class="cls-1" x="36.9" width="3.85" height="36.46"/><rect class="cls-1" x="36.98" y="0.08" width="3.69" height="36.3"/><rect class="cls-1" x="24.22" y="38.38" width="34.97" height="3.85"/><rect class="cls-1" x="24.3" y="38.46" width="34.81" height="3.69"/><rect class="cls-1" x="42.67" width="3.85" height="36.46"/><rect class="cls-1" x="42.75" y="0.08" width="3.69" height="36.3"/></g></g></svg></svg></g></svg>